<svg width="172" height="30" viewBox="0 0 172 30" fill="none" xmlns="http://www.w3.org/2000/svg">
<path d="M46.8 13.38V15.8H49.66C49.32 16.6 48.36 17.12 47.16 17.12C45.42 17.12 44.26 15.88 44.26 14C44.26 12.12 45.42 10.88 47.16 10.88C48.3 10.88 49.38 11.5 49.76 12.38H54.7C54.2 8.99999 51.06 6.59999 47.16 6.59999C42.64 6.59999 39.46 9.65999 39.46 14C39.46 18.34 42.64 21.4 47.16 21.4C51.74 21.4 54.8 18.18 54.8 13.38H46.8Z" fill="url(#paint0_linear_29_3)"/>
<path d="M64.8509 10.2L64.4309 10.94C63.5509 10.24 62.4709 9.83999 61.2509 9.83999C57.8909 9.83999 55.6109 12.14 55.6109 15.6C55.6109 19.06 57.8909 21.4 61.2509 21.4C62.4509 21.4 63.5309 21.02 64.4109 20.34L64.7709 21H68.2109V10.2H64.8509ZM60.0909 15.62C60.0909 14.46 60.9109 13.58 62.0709 13.58C63.2109 13.58 64.0509 14.46 64.0509 15.62C64.0509 16.8 63.2109 17.68 62.0709 17.68C60.9309 17.68 60.0909 16.8 60.0909 15.62Z" fill="url(#paint1_linear_29_3)"/>
<path d="M83.2962 9.79999C81.9562 9.79999 80.7562 10.38 79.9162 11.32C79.2162 10.38 78.1162 9.79999 76.8362 9.79999C75.5962 9.79999 74.4962 10.32 73.6962 11.16L73.2762 10.2H70.0962V21H74.5762V14.94C74.5762 14 74.9562 13.44 75.5962 13.44C76.1562 13.44 76.4762 13.88 76.4762 14.64V21H80.8362V14.94C80.8362 13.96 81.1762 13.44 81.8762 13.44C82.4362 13.44 82.7362 13.8 82.7362 14.64V21H87.2162V14.18C87.2162 11.66 85.7362 9.79999 83.2962 9.79999Z" fill="url(#paint2_linear_29_3)"/>
<path d="M100.883 15.44C100.883 12.18 98.3229 9.79999 94.6229 9.79999C91.0029 9.79999 88.423 12.2 88.423 15.58C88.423 18.96 91.0229 21.4 94.6229 21.4C97.5629 21.4 99.8629 19.86 100.623 17.28H96.4029C96.1029 17.82 95.4229 18.12 94.6229 18.12C93.6029 18.12 92.9229 17.6 92.6829 16.54H100.783C100.843 16.16 100.883 15.8 100.883 15.44ZM94.6229 13.06C95.6429 13.06 96.3229 13.58 96.5429 14.48H92.7229C93.0029 13.54 93.6429 13.06 94.6229 13.06Z" fill="url(#paint3_linear_29_3)"/>
<path d="M106.686 21.4C109.706 21.4 111.726 19.9 111.726 17.62C111.726 14.72 109.446 14.4 107.786 14.12C106.806 13.96 106.026 13.84 106.026 13.26C106.026 12.84 106.346 12.66 106.666 12.66C107.006 12.66 107.366 12.9 107.366 13.44H111.506C111.406 11.24 109.566 9.79999 106.666 9.79999C103.726 9.79999 101.766 11.14 101.766 13.42C101.766 16.12 103.986 16.66 105.626 16.92C106.606 17.08 107.366 17.2 107.366 17.8C107.366 18.22 107.046 18.44 106.686 18.44C106.326 18.44 105.926 18.18 105.926 17.54H101.666C101.746 19.88 103.466 21.4 106.686 21.4Z" fill="url(#paint4_linear_29_3)"/>
<path d="M131.525 21L129.485 6.99999H124.885L121.985 13.74L119.145 6.99999H114.545L112.485 21H117.165L117.945 13.96L121.205 21H122.805L126.045 13.94L126.885 21H131.525Z" fill="url(#paint5_linear_29_3)"/>
<path d="M138.454 21.4C142.194 21.4 144.774 19.04 144.774 15.6C144.774 12.16 142.194 9.79999 138.454 9.79999C134.714 9.79999 132.134 12.16 132.134 15.6C132.134 19.04 134.714 21.4 138.454 21.4ZM138.454 17.54C137.374 17.54 136.574 16.74 136.574 15.6C136.574 14.46 137.374 13.66 138.454 13.66C139.534 13.66 140.334 14.48 140.334 15.6C140.334 16.74 139.534 17.54 138.454 17.54Z" fill="url(#paint6_linear_29_3)"/>
<path d="M153.752 6.29999V10.52C152.992 10.06 152.112 9.79999 151.172 9.79999C147.812 9.79999 145.532 12.14 145.532 15.6C145.532 19.06 147.812 21.4 151.172 21.4C152.432 21.4 153.572 20.96 154.432 20.2L154.792 21H158.132V6.29999H153.752ZM151.992 17.68C150.852 17.68 150.012 16.78 150.012 15.6C150.012 14.42 150.852 13.52 151.992 13.52C153.132 13.52 153.972 14.42 153.972 15.6C153.972 16.78 153.132 17.68 151.992 17.68Z" fill="url(#paint7_linear_29_3)"/>
<path d="M171.918 15.44C171.918 12.18 169.358 9.79999 165.658 9.79999C162.038 9.79999 159.458 12.2 159.458 15.58C159.458 18.96 162.058 21.4 165.658 21.4C168.598 21.4 170.898 19.86 171.658 17.28H167.438C167.138 17.82 166.458 18.12 165.658 18.12C164.638 18.12 163.958 17.6 163.718 16.54H171.818C171.878 16.16 171.918 15.8 171.918 15.44ZM165.658 13.06C166.678 13.06 167.358 13.58 167.578 14.48H163.758C164.038 13.54 164.678 13.06 165.658 13.06Z" fill="url(#paint8_linear_29_3)"/>
<path d="M5.66665 9.66666C7.08113 9.66666 8.43769 10.2286 9.43788 11.2288C10.4381 12.229 11 13.5855 11 15C11 16.4145 10.4381 17.771 9.43788 18.7712C8.43769 19.7714 7.08113 20.3333 5.66665 20.3333C4.25216 20.3333 2.8956 19.7714 1.89541 18.7712C0.895216 17.771 0.333313 16.4145 0.333313 15C0.333313 13.5855 0.895216 12.229 1.89541 11.2288C2.8956 10.2286 4.25216 9.66666 5.66665 9.66666ZM15 0.333328C16.4145 0.333328 17.771 0.895231 18.7712 1.89543C19.7714 2.89562 20.3333 4.25217 20.3333 5.66666C20.3333 7.08115 19.7714 8.4377 18.7712 9.4379C17.771 10.4381 16.4145 11 15 11C13.5855 11 12.2289 10.4381 11.2287 9.4379C10.2285 8.4377 9.66665 7.08115 9.66665 5.66666C9.66665 4.25217 10.2285 2.89562 11.2287 1.89543C12.2289 0.895231 13.5855 0.333328 15 0.333328ZM15 19C16.4145 19 17.771 19.5619 18.7712 20.5621C19.7714 21.5623 20.3333 22.9188 20.3333 24.3333C20.3333 25.7478 19.7714 27.1044 18.7712 28.1046C17.771 29.1048 16.4145 29.6667 15 29.6667C13.5855 29.6667 12.2289 29.1048 11.2287 28.1046C10.2285 27.1044 9.66665 25.7478 9.66665 24.3333C9.66665 22.9188 10.2285 21.5623 11.2287 20.5621C12.2289 19.5619 13.5855 19 15 19ZM24.3333 9.66666C25.7478 9.66666 27.1044 10.2286 28.1045 11.2288C29.1047 12.229 29.6666 13.5855 29.6666 15C29.6666 16.4145 29.1047 17.771 28.1045 18.7712C27.1044 19.7714 25.7478 20.3333 24.3333 20.3333C22.9188 20.3333 21.5623 19.7714 20.5621 18.7712C19.5619 17.771 19 16.4145 19 15C19 13.5855 19.5619 12.229 20.5621 11.2288C21.5623 10.2286 22.9188 9.66666 24.3333 9.66666Z" fill="url(#paint9_linear_29_3)"/>
<defs>
<linearGradient id="paint0_linear_29_3" x1="0.333313" y1="14.5269" x2="171.918" y2="14.5269" gradientUnits="userSpaceOnUse">
<stop stop-color="#0061FD" stop-opacity="0.8"/>
<stop offset="0.895004" stop-color="#BCD6FF"/>
</linearGradient>
<linearGradient id="paint1_linear_29_3" x1="0.333313" y1="14.5269" x2="171.918" y2="14.5269" gradientUnits="userSpaceOnUse">
<stop stop-color="#0061FD" stop-opacity="0.8"/>
<stop offset="0.895004" stop-color="#BCD6FF"/>
</linearGradient>
<linearGradient id="paint2_linear_29_3" x1="0.333313" y1="14.5269" x2="171.918" y2="14.5269" gradientUnits="userSpaceOnUse">
<stop stop-color="#0061FD" stop-opacity="0.8"/>
<stop offset="0.895004" stop-color="#BCD6FF"/>
</linearGradient>
<linearGradient id="paint3_linear_29_3" x1="0.333313" y1="14.5269" x2="171.918" y2="14.5269" gradientUnits="userSpaceOnUse">
<stop stop-color="#0061FD" stop-opacity="0.8"/>
<stop offset="0.895004" stop-color="#BCD6FF"/>
</linearGradient>
<linearGradient id="paint4_linear_29_3" x1="0.333313" y1="14.5269" x2="171.918" y2="14.5269" gradientUnits="userSpaceOnUse">
<stop stop-color="#0061FD" stop-opacity="0.8"/>
<stop offset="0.895004" stop-color="#BCD6FF"/>
</linearGradient>
<linearGradient id="paint5_linear_29_3" x1="0.333313" y1="14.5269" x2="171.918" y2="14.5269" gradientUnits="userSpaceOnUse">
<stop stop-color="#0061FD" stop-opacity="0.8"/>
<stop offset="0.895004" stop-color="#BCD6FF"/>
</linearGradient>
<linearGradient id="paint6_linear_29_3" x1="0.333313" y1="14.5269" x2="171.918" y2="14.5269" gradientUnits="userSpaceOnUse">
<stop stop-color="#0061FD" stop-opacity="0.8"/>
<stop offset="0.895004" stop-color="#BCD6FF"/>
</linearGradient>
<linearGradient id="paint7_linear_29_3" x1="0.333313" y1="14.5269" x2="171.918" y2="14.5269" gradientUnits="userSpaceOnUse">
<stop stop-color="#0061FD" stop-opacity="0.8"/>
<stop offset="0.895004" stop-color="#BCD6FF"/>
</linearGradient>
<linearGradient id="paint8_linear_29_3" x1="0.333313" y1="14.5269" x2="171.918" y2="14.5269" gradientUnits="userSpaceOnUse">
<stop stop-color="#0061FD" stop-opacity="0.8"/>
<stop offset="0.895004" stop-color="#BCD6FF"/>
</linearGradient>
<linearGradient id="paint9_linear_29_3" x1="15" y1="0.333328" x2="15" y2="29.6667" gradientUnits="userSpaceOnUse">
<stop stop-color="#125CCF"/>
<stop offset="0.9375" stop-color="#01C7FC"/>
<stop offset="1" stop-color="#74A7FF"/>
</linearGradient>
</defs>
</svg>
